solid OpenSCAD_Model
  facet normal 0.86583 0.0212549 0.499887
    outer loop
      vertex 17.6447 0.866827 0
      vertex 0 0 30.5983
      vertex 17.6659 0 0
    endloop
  endfacet
  facet normal 0.863744 0.0637136 0.499887
    outer loop
      vertex 17.5809 1.73157 0
      vertex 0 0 30.5983
      vertex 17.6447 0.866827 0
    endloop
  endfacet
  facet normal 0.859577 0.106019 0.499887
    outer loop
      vertex 17.4747 2.59213 0
      vertex 0 0 30.5983
      vertex 17.5809 1.73157 0
    endloop
  endfacet
  facet normal 0.85334 0.148068 0.499887
    outer loop
      vertex 17.3265 3.44646 0
      vertex 0 0 30.5983
      vertex 17.4747 2.59213 0
    endloop
  endfacet
  facet normal 0.845046 0.189762 0.499887
    outer loop
      vertex 17.1365 4.29247 0
      vertex 0 0 30.5983
      vertex 17.3265 3.44646 0
    endloop
  endfacet
  facet normal 0.834717 0.230997 0.499887
    outer loop
      vertex 16.9053 5.12815 0
      vertex 0 0 30.5983
      vertex 17.1365 4.29247 0
    endloop
  endfacet
  facet normal 0.822377 0.271677 0.499887
    outer loop
      vertex 16.6333 5.95148 0
      vertex 0 0 30.5983
      vertex 16.9053 5.12815 0
    endloop
  endfacet
  facet normal 0.808056 0.311702 0.499887
    outer loop
      vertex 16.3212 6.76047 0
      vertex 0 0 30.5983
      vertex 16.6333 5.95148 0
    endloop
  endfacet
  facet normal 0.791788 0.350976 0.499887
    outer loop
      vertex 15.9698 7.55317 0
      vertex 0 0 30.5983
      vertex 16.3212 6.76047 0
    endloop
  endfacet
  facet normal 0.773613 0.389404 0.499887
    outer loop
      vertex 15.58 8.32767 0
      vertex 0 0 30.5983
      vertex 15.9698 7.55317 0
    endloop
  endfacet
  facet normal 0.753574 0.426894 0.499887
    outer loop
      vertex 15.1526 9.08211 0
      vertex 0 0 30.5983
      vertex 15.58 8.32767 0
    endloop
  endfacet
  facet normal 0.73172 0.463356 0.499887
    outer loop
      vertex 14.6887 9.81467 0
      vertex 0 0 30.5983
      vertex 15.1526 9.08211 0
    endloop
  endfacet
  facet normal 0.708103 0.498702 0.499887
    outer loop
      vertex 14.1894 10.5236 0
      vertex 0 0 30.5983
      vertex 14.6887 9.81467 0
    endloop
  endfacet
  facet normal 0.682779 0.532846 0.499887
    outer loop
      vertex 13.656 11.2072 0
      vertex 0 0 30.5983
      vertex 14.1894 10.5236 0
    endloop
  endfacet
  facet normal 0.655811 0.565707 0.499887
    outer loop
      vertex 13.0896 11.8637 0
      vertex 0 0 30.5983
      vertex 13.656 11.2072 0
    endloop
  endfacet
  facet normal 0.627264 0.597205 0.499887
    outer loop
      vertex 12.4917 12.4917 0
      vertex 0 0 30.5983
      vertex 13.0896 11.8637 0
    endloop
  endfacet
  facet normal 0.597205 0.627264 0.499887
    outer loop
      vertex 11.8637 13.0896 0
      vertex 0 0 30.5983
      vertex 12.4917 12.4917 0
    endloop
  endfacet
  facet normal 0.565707 0.655811 0.499887
    outer loop
      vertex 11.2072 13.656 0
      vertex 0 0 30.5983
      vertex 11.8637 13.0896 0
    endloop
  endfacet
  facet normal 0.532846 0.682779 0.499887
    outer loop
      vertex 10.5236 14.1894 0
      vertex 0 0 30.5983
      vertex 11.2072 13.656 0
    endloop
  endfacet
  facet normal 0.498702 0.708103 0.499887
    outer loop
      vertex 9.81467 14.6887 0
      vertex 0 0 30.5983
      vertex 10.5236 14.1894 0
    endloop
  endfacet
  facet normal 0.463356 0.73172 0.499887
    outer loop
      vertex 9.08211 15.1526 0
      vertex 0 0 30.5983
      vertex 9.81467 14.6887 0
    endloop
  endfacet
  facet normal 0.426894 0.753574 0.499887
    outer loop
      vertex 8.32767 15.58 0
      vertex 0 0 30.5983
      vertex 9.08211 15.1526 0
    endloop
  endfacet
  facet normal 0.389404 0.773613 0.499887
    outer loop
      vertex 7.55317 15.9698 0
      vertex 0 0 30.5983
      vertex 8.32767 15.58 0
    endloop
  endfacet
  facet normal 0.350976 0.791788 0.499887
    outer loop
      vertex 6.76047 16.3212 0
      vertex 0 0 30.5983
      vertex 7.55317 15.9698 0
    endloop
  endfacet
  facet normal 0.311702 0.808056 0.499887
    outer loop
      vertex 5.95148 16.6333 0
      vertex 0 0 30.5983
      vertex 6.76047 16.3212 0
    endloop
  endfacet
  facet normal 0.271677 0.822377 0.499887
    outer loop
      vertex 5.12815 16.9053 0
      vertex 0 0 30.5983
      vertex 5.95148 16.6333 0
    endloop
  endfacet
  facet normal 0.230997 0.834717 0.499887
    outer loop
      vertex 4.29247 17.1365 0
      vertex 0 0 30.5983
      vertex 5.12815 16.9053 0
    endloop
  endfacet
  facet normal 0.189762 0.845046 0.499887
    outer loop
      vertex 3.44646 17.3265 0
      vertex 0 0 30.5983
      vertex 4.29247 17.1365 0
    endloop
  endfacet
  facet normal 0.148068 0.85334 0.499887
    outer loop
      vertex 2.59213 17.4747 0
      vertex 0 0 30.5983
      vertex 3.44646 17.3265 0
    endloop
  endfacet
  facet normal 0.106019 0.859577 0.499887
    outer loop
      vertex 1.73157 17.5809 0
      vertex 0 0 30.5983
      vertex 2.59213 17.4747 0
    endloop
  endfacet
  facet normal 0.0637136 0.863744 0.499887
    outer loop
      vertex 0.866827 17.6447 0
      vertex 0 0 30.5983
      vertex 1.73157 17.5809 0
    endloop
  endfacet
  facet normal 0.0212549 0.86583 0.499887
    outer loop
      vertex 1.08173e-15 17.6659 0
      vertex 0 0 30.5983
      vertex 0.866827 17.6447 0
    endloop
  endfacet
  facet normal -0.0212549 0.86583 0.499887
    outer loop
      vertex -0.866827 17.6447 0
      vertex 0 0 30.5983
      vertex 1.08173e-15 17.6659 0
    endloop
  endfacet
  facet normal -0.0637136 0.863744 0.499887
    outer loop
      vertex -1.73157 17.5809 0
      vertex -0 0 30.5983
      vertex -0.866827 17.6447 0
    endloop
  endfacet
  facet normal -0.106019 0.859577 0.499887
    outer loop
      vertex -2.59213 17.4747 0
      vertex -0 0 30.5983
      vertex -1.73157 17.5809 0
    endloop
  endfacet
  facet normal -0.148068 0.85334 0.499887
    outer loop
      vertex -3.44646 17.3265 0
      vertex -0 0 30.5983
      vertex -2.59213 17.4747 0
    endloop
  endfacet
  facet normal -0.189762 0.845046 0.499887
    outer loop
      vertex -4.29247 17.1365 0
      vertex -0 0 30.5983
      vertex -3.44646 17.3265 0
    endloop
  endfacet
  facet normal -0.230997 0.834717 0.499887
    outer loop
      vertex -5.12815 16.9053 0
      vertex -0 0 30.5983
      vertex -4.29247 17.1365 0
    endloop
  endfacet
  facet normal -0.271677 0.822377 0.499887
    outer loop
      vertex -5.95148 16.6333 0
      vertex -0 0 30.5983
      vertex -5.12815 16.9053 0
    endloop
  endfacet
  facet normal -0.311702 0.808056 0.499887
    outer loop
      vertex -6.76047 16.3212 0
      vertex -0 0 30.5983
      vertex -5.95148 16.6333 0
    endloop
  endfacet
  facet normal -0.350976 0.791788 0.499887
    outer loop
      vertex -7.55317 15.9698 0
      vertex -0 0 30.5983
      vertex -6.76047 16.3212 0
    endloop
  endfacet
  facet normal -0.389404 0.773613 0.499887
    outer loop
      vertex -8.32767 15.58 0
      vertex -0 0 30.5983
      vertex -7.55317 15.9698 0
    endloop
  endfacet
  facet normal -0.426894 0.753574 0.499887
    outer loop
      vertex -9.08211 15.1526 0
      vertex -0 0 30.5983
      vertex -8.32767 15.58 0
    endloop
  endfacet
  facet normal -0.463356 0.73172 0.499887
    outer loop
      vertex -9.81467 14.6887 0
      vertex -0 0 30.5983
      vertex -9.08211 15.1526 0
    endloop
  endfacet
  facet normal -0.498702 0.708103 0.499887
    outer loop
      vertex -10.5236 14.1894 0
      vertex -0 0 30.5983
      vertex -9.81467 14.6887 0
    endloop
  endfacet
  facet normal -0.532846 0.682779 0.499887
    outer loop
      vertex -11.2072 13.656 0
      vertex -0 0 30.5983
      vertex -10.5236 14.1894 0
    endloop
  endfacet
  facet normal -0.565707 0.655811 0.499887
    outer loop
      vertex -11.8637 13.0896 0
      vertex -0 0 30.5983
      vertex -11.2072 13.656 0
    endloop
  endfacet
  facet normal -0.597205 0.627264 0.499887
    outer loop
      vertex -12.4917 12.4917 0
      vertex -0 0 30.5983
      vertex -11.8637 13.0896 0
    endloop
  endfacet
  facet normal -0.627264 0.597205 0.499887
    outer loop
      vertex -13.0896 11.8637 0
      vertex -0 0 30.5983
      vertex -12.4917 12.4917 0
    endloop
  endfacet
  facet normal -0.655811 0.565707 0.499887
    outer loop
      vertex -13.656 11.2072 0
      vertex -0 0 30.5983
      vertex -13.0896 11.8637 0
    endloop
  endfacet
  facet normal -0.682779 0.532846 0.499887
    outer loop
      vertex -14.1894 10.5236 0
      vertex -0 0 30.5983
      vertex -13.656 11.2072 0
    endloop
  endfacet
  facet normal -0.708103 0.498702 0.499887
    outer loop
      vertex -14.6887 9.81467 0
      vertex -0 0 30.5983
      vertex -14.1894 10.5236 0
    endloop
  endfacet
  facet normal -0.73172 0.463356 0.499887
    outer loop
      vertex -15.1526 9.08211 0
      vertex -0 0 30.5983
      vertex -14.6887 9.81467 0
    endloop
  endfacet
  facet normal -0.753574 0.426894 0.499887
    outer loop
      vertex -15.58 8.32767 0
      vertex -0 0 30.5983
      vertex -15.1526 9.08211 0
    endloop
  endfacet
  facet normal -0.773613 0.389404 0.499887
    outer loop
      vertex -15.9698 7.55317 0
      vertex -0 0 30.5983
      vertex -15.58 8.32767 0
    endloop
  endfacet
  facet normal -0.791788 0.350976 0.499887
    outer loop
      vertex -16.3212 6.76047 0
      vertex -0 0 30.5983
      vertex -15.9698 7.55317 0
    endloop
  endfacet
  facet normal -0.808056 0.311702 0.499887
    outer loop
      vertex -16.6333 5.95148 0
      vertex -0 0 30.5983
      vertex -16.3212 6.76047 0
    endloop
  endfacet
  facet normal -0.822377 0.271677 0.499887
    outer loop
      vertex -16.9053 5.12815 0
      vertex -0 0 30.5983
      vertex -16.6333 5.95148 0
    endloop
  endfacet
  facet normal -0.834717 0.230997 0.499887
    outer loop
      vertex -17.1365 4.29247 0
      vertex -0 0 30.5983
      vertex -16.9053 5.12815 0
    endloop
  endfacet
  facet normal -0.845046 0.189762 0.499887
    outer loop
      vertex -17.3265 3.44646 0
      vertex -0 0 30.5983
      vertex -17.1365 4.29247 0
    endloop
  endfacet
  facet normal -0.85334 0.148068 0.499887
    outer loop
      vertex -17.4747 2.59213 0
      vertex -0 0 30.5983
      vertex -17.3265 3.44646 0
    endloop
  endfacet
  facet normal -0.859577 0.106019 0.499887
    outer loop
      vertex -17.5809 1.73157 0
      vertex -0 0 30.5983
      vertex -17.4747 2.59213 0
    endloop
  endfacet
  facet normal -0.863744 0.0637136 0.499887
    outer loop
      vertex -17.6447 0.866827 0
      vertex -0 0 30.5983
      vertex -17.5809 1.73157 0
    endloop
  endfacet
  facet normal -0.86583 0.0212549 0.499887
    outer loop
      vertex -17.6659 2.16345e-15 0
      vertex -0 0 30.5983
      vertex -17.6447 0.866827 0
    endloop
  endfacet
  facet normal -0.86583 -0.0212549 0.499887
    outer loop
      vertex -17.6447 -0.866827 0
      vertex -0 0 30.5983
      vertex -17.6659 2.16345e-15 0
    endloop
  endfacet
  facet normal -0.863744 -0.0637136 0.499887
    outer loop
      vertex -17.5809 -1.73157 0
      vertex -0 -0 30.5983
      vertex -17.6447 -0.866827 0
    endloop
  endfacet
  facet normal -0.859577 -0.106019 0.499887
    outer loop
      vertex -17.4747 -2.59213 0
      vertex -0 -0 30.5983
      vertex -17.5809 -1.73157 0
    endloop
  endfacet
  facet normal -0.85334 -0.148068 0.499887
    outer loop
      vertex -17.3265 -3.44646 0
      vertex -0 -0 30.5983
      vertex -17.4747 -2.59213 0
    endloop
  endfacet
  facet normal -0.845046 -0.189762 0.499887
    outer loop
      vertex -17.1365 -4.29247 0
      vertex -0 -0 30.5983
      vertex -17.3265 -3.44646 0
    endloop
  endfacet
  facet normal -0.834717 -0.230997 0.499887
    outer loop
      vertex -16.9053 -5.12815 0
      vertex -0 -0 30.5983
      vertex -17.1365 -4.29247 0
    endloop
  endfacet
  facet normal -0.822377 -0.271677 0.499887
    outer loop
      vertex -16.6333 -5.95148 0
      vertex -0 -0 30.5983
      vertex -16.9053 -5.12815 0
    endloop
  endfacet
  facet normal -0.808056 -0.311702 0.499887
    outer loop
      vertex -16.3212 -6.76047 0
      vertex -0 -0 30.5983
      vertex -16.6333 -5.95148 0
    endloop
  endfacet
  facet normal -0.791788 -0.350976 0.499887
    outer loop
      vertex -15.9698 -7.55317 0
      vertex -0 -0 30.5983
      vertex -16.3212 -6.76047 0
    endloop
  endfacet
  facet normal -0.773613 -0.389404 0.499887
    outer loop
      vertex -15.58 -8.32767 0
      vertex -0 -0 30.5983
      vertex -15.9698 -7.55317 0
    endloop
  endfacet
  facet normal -0.753574 -0.426894 0.499887
    outer loop
      vertex -15.1526 -9.08211 0
      vertex -0 -0 30.5983
      vertex -15.58 -8.32767 0
    endloop
  endfacet
  facet normal -0.73172 -0.463356 0.499887
    outer loop
      vertex -14.6887 -9.81467 0
      vertex -0 -0 30.5983
      vertex -15.1526 -9.08211 0
    endloop
  endfacet
  facet normal -0.708103 -0.498702 0.499887
    outer loop
      vertex -14.1894 -10.5236 0
      vertex -0 -0 30.5983
      vertex -14.6887 -9.81467 0
    endloop
  endfacet
  facet normal -0.682779 -0.532846 0.499887
    outer loop
      vertex -13.656 -11.2072 0
      vertex -0 -0 30.5983
      vertex -14.1894 -10.5236 0
    endloop
  endfacet
  facet normal -0.655811 -0.565707 0.499887
    outer loop
      vertex -13.0896 -11.8637 0
      vertex -0 -0 30.5983
      vertex -13.656 -11.2072 0
    endloop
  endfacet
  facet normal -0.627264 -0.597205 0.499887
    outer loop
      vertex -12.4917 -12.4917 0
      vertex -0 -0 30.5983
      vertex -13.0896 -11.8637 0
    endloop
  endfacet
  facet normal -0.597205 -0.627264 0.499887
    outer loop
      vertex -11.8637 -13.0896 0
      vertex -0 -0 30.5983
      vertex -12.4917 -12.4917 0
    endloop
  endfacet
  facet normal -0.565707 -0.655811 0.499887
    outer loop
      vertex -11.2072 -13.656 0
      vertex -0 -0 30.5983
      vertex -11.8637 -13.0896 0
    endloop
  endfacet
  facet normal -0.532846 -0.682779 0.499887
    outer loop
      vertex -10.5236 -14.1894 0
      vertex -0 -0 30.5983
      vertex -11.2072 -13.656 0
    endloop
  endfacet
  facet normal -0.498702 -0.708103 0.499887
    outer loop
      vertex -9.81467 -14.6887 0
      vertex -0 -0 30.5983
      vertex -10.5236 -14.1894 0
    endloop
  endfacet
  facet normal -0.463356 -0.73172 0.499887
    outer loop
      vertex -9.08211 -15.1526 0
      vertex -0 -0 30.5983
      vertex -9.81467 -14.6887 0
    endloop
  endfacet
  facet normal -0.426894 -0.753574 0.499887
    outer loop
      vertex -8.32767 -15.58 0
      vertex -0 -0 30.5983
      vertex -9.08211 -15.1526 0
    endloop
  endfacet
  facet normal -0.389404 -0.773613 0.499887
    outer loop
      vertex -7.55317 -15.9698 0
      vertex -0 -0 30.5983
      vertex -8.32767 -15.58 0
    endloop
  endfacet
  facet normal -0.350976 -0.791788 0.499887
    outer loop
      vertex -6.76047 -16.3212 0
      vertex -0 -0 30.5983
      vertex -7.55317 -15.9698 0
    endloop
  endfacet
  facet normal -0.311702 -0.808056 0.499887
    outer loop
      vertex -5.95148 -16.6333 0
      vertex -0 -0 30.5983
      vertex -6.76047 -16.3212 0
    endloop
  endfacet
  facet normal -0.271677 -0.822377 0.499887
    outer loop
      vertex -5.12815 -16.9053 0
      vertex -0 -0 30.5983
      vertex -5.95148 -16.6333 0
    endloop
  endfacet
  facet normal -0.230997 -0.834717 0.499887
    outer loop
      vertex -4.29247 -17.1365 0
      vertex -0 -0 30.5983
      vertex -5.12815 -16.9053 0
    endloop
  endfacet
  facet normal -0.189762 -0.845046 0.499887
    outer loop
      vertex -3.44646 -17.3265 0
      vertex -0 -0 30.5983
      vertex -4.29247 -17.1365 0
    endloop
  endfacet
  facet normal -0.148068 -0.85334 0.499887
    outer loop
      vertex -2.59213 -17.4747 0
      vertex -0 -0 30.5983
      vertex -3.44646 -17.3265 0
    endloop
  endfacet
  facet normal -0.106019 -0.859577 0.499887
    outer loop
      vertex -1.73157 -17.5809 0
      vertex -0 -0 30.5983
      vertex -2.59213 -17.4747 0
    endloop
  endfacet
  facet normal -0.0637136 -0.863744 0.499887
    outer loop
      vertex -0.866827 -17.6447 0
      vertex -0 -0 30.5983
      vertex -1.73157 -17.5809 0
    endloop
  endfacet
  facet normal -0.0212549 -0.86583 0.499887
    outer loop
      vertex -3.24518e-15 -17.6659 0
      vertex -0 -0 30.5983
      vertex -0.866827 -17.6447 0
    endloop
  endfacet
  facet normal 0.0212549 -0.86583 0.499887
    outer loop
      vertex 0.866827 -17.6447 0
      vertex -0 -0 30.5983
      vertex -3.24518e-15 -17.6659 0
    endloop
  endfacet
  facet normal 0.0637136 -0.863744 0.499887
    outer loop
      vertex 1.73157 -17.5809 0
      vertex 0 -0 30.5983
      vertex 0.866827 -17.6447 0
    endloop
  endfacet
  facet normal 0.106019 -0.859577 0.499887
    outer loop
      vertex 2.59213 -17.4747 0
      vertex 0 -0 30.5983
      vertex 1.73157 -17.5809 0
    endloop
  endfacet
  facet normal 0.148068 -0.85334 0.499887
    outer loop
      vertex 3.44646 -17.3265 0
      vertex 0 -0 30.5983
      vertex 2.59213 -17.4747 0
    endloop
  endfacet
  facet normal 0.189762 -0.845046 0.499887
    outer loop
      vertex 4.29247 -17.1365 0
      vertex 0 -0 30.5983
      vertex 3.44646 -17.3265 0
    endloop
  endfacet
  facet normal 0.230997 -0.834717 0.499887
    outer loop
      vertex 5.12815 -16.9053 0
      vertex 0 -0 30.5983
      vertex 4.29247 -17.1365 0
    endloop
  endfacet
  facet normal 0.271677 -0.822377 0.499887
    outer loop
      vertex 5.95148 -16.6333 0
      vertex 0 -0 30.5983
      vertex 5.12815 -16.9053 0
    endloop
  endfacet
  facet normal 0.311702 -0.808056 0.499887
    outer loop
      vertex 6.76047 -16.3212 0
      vertex 0 -0 30.5983
      vertex 5.95148 -16.6333 0
    endloop
  endfacet
  facet normal 0.350976 -0.791788 0.499887
    outer loop
      vertex 7.55317 -15.9698 0
      vertex 0 -0 30.5983
      vertex 6.76047 -16.3212 0
    endloop
  endfacet
  facet normal 0.389404 -0.773613 0.499887
    outer loop
      vertex 8.32767 -15.58 0
      vertex 0 -0 30.5983
      vertex 7.55317 -15.9698 0
    endloop
  endfacet
  facet normal 0.426894 -0.753574 0.499887
    outer loop
      vertex 9.08211 -15.1526 0
      vertex 0 -0 30.5983
      vertex 8.32767 -15.58 0
    endloop
  endfacet
  facet normal 0.463356 -0.73172 0.499887
    outer loop
      vertex 9.81467 -14.6887 0
      vertex 0 -0 30.5983
      vertex 9.08211 -15.1526 0
    endloop
  endfacet
  facet normal 0.498702 -0.708103 0.499887
    outer loop
      vertex 10.5236 -14.1894 0
      vertex 0 -0 30.5983
      vertex 9.81467 -14.6887 0
    endloop
  endfacet
  facet normal 0.532846 -0.682779 0.499887
    outer loop
      vertex 11.2072 -13.656 0
      vertex 0 -0 30.5983
      vertex 10.5236 -14.1894 0
    endloop
  endfacet
  facet normal 0.565707 -0.655811 0.499887
    outer loop
      vertex 11.8637 -13.0896 0
      vertex 0 -0 30.5983
      vertex 11.2072 -13.656 0
    endloop
  endfacet
  facet normal 0.597205 -0.627264 0.499887
    outer loop
      vertex 12.4917 -12.4917 0
      vertex 0 -0 30.5983
      vertex 11.8637 -13.0896 0
    endloop
  endfacet
  facet normal 0.627264 -0.597205 0.499887
    outer loop
      vertex 13.0896 -11.8637 0
      vertex 0 -0 30.5983
      vertex 12.4917 -12.4917 0
    endloop
  endfacet
  facet normal 0.655811 -0.565707 0.499887
    outer loop
      vertex 13.656 -11.2072 0
      vertex 0 -0 30.5983
      vertex 13.0896 -11.8637 0
    endloop
  endfacet
  facet normal 0.682779 -0.532846 0.499887
    outer loop
      vertex 14.1894 -10.5236 0
      vertex 0 -0 30.5983
      vertex 13.656 -11.2072 0
    endloop
  endfacet
  facet normal 0.708103 -0.498702 0.499887
    outer loop
      vertex 14.6887 -9.81467 0
      vertex 0 -0 30.5983
      vertex 14.1894 -10.5236 0
    endloop
  endfacet
  facet normal 0.73172 -0.463356 0.499887
    outer loop
      vertex 15.1526 -9.08211 0
      vertex 0 -0 30.5983
      vertex 14.6887 -9.81467 0
    endloop
  endfacet
  facet normal 0.753574 -0.426894 0.499887
    outer loop
      vertex 15.58 -8.32767 0
      vertex 0 -0 30.5983
      vertex 15.1526 -9.08211 0
    endloop
  endfacet
  facet normal 0.773613 -0.389404 0.499887
    outer loop
      vertex 15.9698 -7.55317 0
      vertex 0 -0 30.5983
      vertex 15.58 -8.32767 0
    endloop
  endfacet
  facet normal 0.791788 -0.350976 0.499887
    outer loop
      vertex 16.3212 -6.76047 0
      vertex 0 -0 30.5983
      vertex 15.9698 -7.55317 0
    endloop
  endfacet
  facet normal 0.808056 -0.311702 0.499887
    outer loop
      vertex 16.6333 -5.95148 0
      vertex 0 -0 30.5983
      vertex 16.3212 -6.76047 0
    endloop
  endfacet
  facet normal 0.822377 -0.271677 0.499887
    outer loop
      vertex 16.9053 -5.12815 0
      vertex 0 -0 30.5983
      vertex 16.6333 -5.95148 0
    endloop
  endfacet
  facet normal 0.834717 -0.230997 0.499887
    outer loop
      vertex 17.1365 -4.29247 0
      vertex 0 -0 30.5983
      vertex 16.9053 -5.12815 0
    endloop
  endfacet
  facet normal 0.845046 -0.189762 0.499887
    outer loop
      vertex 17.3265 -3.44646 0
      vertex 0 -0 30.5983
      vertex 17.1365 -4.29247 0
    endloop
  endfacet
  facet normal 0.85334 -0.148068 0.499887
    outer loop
      vertex 17.4747 -2.59213 0
      vertex 0 -0 30.5983
      vertex 17.3265 -3.44646 0
    endloop
  endfacet
  facet normal 0.859577 -0.106019 0.499887
    outer loop
      vertex 17.5809 -1.73157 0
      vertex 0 -0 30.5983
      vertex 17.4747 -2.59213 0
    endloop
  endfacet
  facet normal 0.863744 -0.0637136 0.499887
    outer loop
      vertex 17.6447 -0.866827 0
      vertex 0 -0 30.5983
      vertex 17.5809 -1.73157 0
    endloop
  endfacet
  facet normal 0.86583 -0.0212549 0.499887
    outer loop
      vertex 17.6659 0 0
      vertex 0 -0 30.5983
      vertex 17.6447 -0.866827 0
    endloop
  endfacet
  facet normal 0 0 -1
    outer loop
      vertex 17.6447 -0.866827 0
      vertex 17.6447 0.866827 0
      vertex 17.6659 0 0
    endloop
  endfacet
  facet normal 0 0 -1
    outer loop
      vertex 17.5809 -1.73157 0
      vertex 17.6447 0.866827 0
      vertex 17.6447 -0.866827 0
    endloop
  endfacet
  facet normal 0 0 -1
    outer loop
      vertex 17.5809 -1.73157 0
      vertex 17.5809 1.73157 0
      vertex 17.6447 0.866827 0
    endloop
  endfacet
  facet normal 0 0 -1
    outer loop
      vertex 17.4747 -2.59213 0
      vertex 17.5809 1.73157 0
      vertex 17.5809 -1.73157 0
    endloop
  endfacet
  facet normal 0 0 -1
    outer loop
      vertex 17.4747 -2.59213 0
      vertex 17.4747 2.59213 0
      vertex 17.5809 1.73157 0
    endloop
  endfacet
  facet normal 0 0 -1
    outer loop
      vertex 17.3265 -3.44646 0
      vertex 17.4747 2.59213 0
      vertex 17.4747 -2.59213 0
    endloop
  endfacet
  facet normal 0 0 -1
    outer loop
      vertex 17.3265 -3.44646 0
      vertex 17.3265 3.44646 0
      vertex 17.4747 2.59213 0
    endloop
  endfacet
  facet normal 0 0 -1
    outer loop
      vertex 17.1365 -4.29247 0
      vertex 17.3265 3.44646 0
      vertex 17.3265 -3.44646 0
    endloop
  endfacet
  facet normal 0 0 -1
    outer loop
      vertex 17.1365 -4.29247 0
      vertex 17.1365 4.29247 0
      vertex 17.3265 3.44646 0
    endloop
  endfacet
  facet normal 0 0 -1
    outer loop
      vertex 16.9053 -5.12815 0
      vertex 17.1365 4.29247 0
      vertex 17.1365 -4.29247 0
    endloop
  endfacet
  facet normal 0 0 -1
    outer loop
      vertex 16.9053 -5.12815 0
      vertex 16.9053 5.12815 0
      vertex 17.1365 4.29247 0
    endloop
  endfacet
  facet normal 0 0 -1
    outer loop
      vertex 16.6333 -5.95148 0
      vertex 16.9053 5.12815 0
      vertex 16.9053 -5.12815 0
    endloop
  endfacet
  facet normal 0 0 -1
    outer loop
      vertex 16.6333 -5.95148 0
      vertex 16.6333 5.95148 0
      vertex 16.9053 5.12815 0
    endloop
  endfacet
  facet normal 0 0 -1
    outer loop
      vertex 16.3212 -6.76047 0
      vertex 16.6333 5.95148 0
      vertex 16.6333 -5.95148 0
    endloop
  endfacet
  facet normal 0 0 -1
    outer loop
      vertex 16.3212 -6.76047 0
      vertex 16.3212 6.76047 0
      vertex 16.6333 5.95148 0
    endloop
  endfacet
  facet normal 0 0 -1
    outer loop
      vertex 15.9698 -7.55317 0
      vertex 16.3212 6.76047 0
      vertex 16.3212 -6.76047 0
    endloop
  endfacet
  facet normal 0 0 -1
    outer loop
      vertex 15.9698 -7.55317 0
      vertex 15.9698 7.55317 0
      vertex 16.3212 6.76047 0
    endloop
  endfacet
  facet normal 0 0 -1
    outer loop
      vertex 15.58 -8.32767 0
      vertex 15.9698 7.55317 0
      vertex 15.9698 -7.55317 0
    endloop
  endfacet
  facet normal 0 0 -1
    outer loop
      vertex 15.58 -8.32767 0
      vertex 15.58 8.32767 0
      vertex 15.9698 7.55317 0
    endloop
  endfacet
  facet normal 0 0 -1
    outer loop
      vertex 15.1526 -9.08211 0
      vertex 15.58 8.32767 0
      vertex 15.58 -8.32767 0
    endloop
  endfacet
  facet normal 0 0 -1
    outer loop
      vertex 15.1526 -9.08211 0
      vertex 15.1526 9.08211 0
      vertex 15.58 8.32767 0
    endloop
  endfacet
  facet normal 0 0 -1
    outer loop
      vertex 14.6887 -9.81467 0
      vertex 15.1526 9.08211 0
      vertex 15.1526 -9.08211 0
    endloop
  endfacet
  facet normal 0 0 -1
    outer loop
      vertex 14.6887 -9.81467 0
      vertex 14.6887 9.81467 0
      vertex 15.1526 9.08211 0
    endloop
  endfacet
  facet normal 0 0 -1
    outer loop
      vertex 14.1894 -10.5236 0
      vertex 14.6887 9.81467 0
      vertex 14.6887 -9.81467 0
    endloop
  endfacet
  facet normal 0 0 -1
    outer loop
      vertex 14.1894 -10.5236 0
      vertex 14.1894 10.5236 0
      vertex 14.6887 9.81467 0
    endloop
  endfacet
  facet normal 0 0 -1
    outer loop
      vertex 13.656 -11.2072 0
      vertex 14.1894 10.5236 0
      vertex 14.1894 -10.5236 0
    endloop
  endfacet
  facet normal 0 0 -1
    outer loop
      vertex 13.656 -11.2072 0
      vertex 13.656 11.2072 0
      vertex 14.1894 10.5236 0
    endloop
  endfacet
  facet normal 0 0 -1
    outer loop
      vertex 13.0896 -11.8637 0
      vertex 13.656 11.2072 0
      vertex 13.656 -11.2072 0
    endloop
  endfacet
  facet normal 0 0 -1
    outer loop
      vertex 13.0896 -11.8637 0
      vertex 13.0896 11.8637 0
      vertex 13.656 11.2072 0
    endloop
  endfacet
  facet normal 0 0 -1
    outer loop
      vertex 12.4917 -12.4917 0
      vertex 13.0896 11.8637 0
      vertex 13.0896 -11.8637 0
    endloop
  endfacet
  facet normal 0 0 -1
    outer loop
      vertex 12.4917 -12.4917 0
      vertex 12.4917 12.4917 0
      vertex 13.0896 11.8637 0
    endloop
  endfacet
  facet normal 0 0 -1
    outer loop
      vertex 11.8637 -13.0896 0
      vertex 12.4917 12.4917 0
      vertex 12.4917 -12.4917 0
    endloop
  endfacet
  facet normal 0 0 -1
    outer loop
      vertex 11.8637 -13.0896 0
      vertex 11.8637 13.0896 0
      vertex 12.4917 12.4917 0
    endloop
  endfacet
  facet normal 0 0 -1
    outer loop
      vertex 11.2072 -13.656 0
      vertex 11.8637 13.0896 0
      vertex 11.8637 -13.0896 0
    endloop
  endfacet
  facet normal 0 0 -1
    outer loop
      vertex 11.2072 -13.656 0
      vertex 11.2072 13.656 0
      vertex 11.8637 13.0896 0
    endloop
  endfacet
  facet normal 0 0 -1
    outer loop
      vertex 10.5236 -14.1894 0
      vertex 11.2072 13.656 0
      vertex 11.2072 -13.656 0
    endloop
  endfacet
  facet normal 0 0 -1
    outer loop
      vertex 10.5236 -14.1894 0
      vertex 10.5236 14.1894 0
      vertex 11.2072 13.656 0
    endloop
  endfacet
  facet normal 0 0 -1
    outer loop
      vertex 9.81467 -14.6887 0
      vertex 10.5236 14.1894 0
      vertex 10.5236 -14.1894 0
    endloop
  endfacet
  facet normal 0 0 -1
    outer loop
      vertex 9.81467 -14.6887 0
      vertex 9.81467 14.6887 0
      vertex 10.5236 14.1894 0
    endloop
  endfacet
  facet normal 0 0 -1
    outer loop
      vertex 9.08211 -15.1526 0
      vertex 9.81467 14.6887 0
      vertex 9.81467 -14.6887 0
    endloop
  endfacet
  facet normal 0 0 -1
    outer loop
      vertex 9.08211 -15.1526 0
      vertex 9.08211 15.1526 0
      vertex 9.81467 14.6887 0
    endloop
  endfacet
  facet normal 0 0 -1
    outer loop
      vertex 8.32767 -15.58 0
      vertex 9.08211 15.1526 0
      vertex 9.08211 -15.1526 0
    endloop
  endfacet
  facet normal 0 0 -1
    outer loop
      vertex 8.32767 -15.58 0
      vertex 8.32767 15.58 0
      vertex 9.08211 15.1526 0
    endloop
  endfacet
  facet normal 0 0 -1
    outer loop
      vertex 7.55317 -15.9698 0
      vertex 8.32767 15.58 0
      vertex 8.32767 -15.58 0
    endloop
  endfacet
  facet normal 0 0 -1
    outer loop
      vertex 7.55317 -15.9698 0
      vertex 7.55317 15.9698 0
      vertex 8.32767 15.58 0
    endloop
  endfacet
  facet normal 0 0 -1
    outer loop
      vertex 6.76047 -16.3212 0
      vertex 7.55317 15.9698 0
      vertex 7.55317 -15.9698 0
    endloop
  endfacet
  facet normal 0 0 -1
    outer loop
      vertex 6.76047 -16.3212 0
      vertex 6.76047 16.3212 0
      vertex 7.55317 15.9698 0
    endloop
  endfacet
  facet normal 0 0 -1
    outer loop
      vertex 5.95148 -16.6333 0
      vertex 6.76047 16.3212 0
      vertex 6.76047 -16.3212 0
    endloop
  endfacet
  facet normal 0 0 -1
    outer loop
      vertex 5.95148 -16.6333 0
      vertex 5.95148 16.6333 0
      vertex 6.76047 16.3212 0
    endloop
  endfacet
  facet normal 0 0 -1
    outer loop
      vertex 5.12815 -16.9053 0
      vertex 5.95148 16.6333 0
      vertex 5.95148 -16.6333 0
    endloop
  endfacet
  facet normal 0 0 -1
    outer loop
      vertex 5.12815 -16.9053 0
      vertex 5.12815 16.9053 0
      vertex 5.95148 16.6333 0
    endloop
  endfacet
  facet normal 0 0 -1
    outer loop
      vertex 4.29247 -17.1365 0
      vertex 5.12815 16.9053 0
      vertex 5.12815 -16.9053 0
    endloop
  endfacet
  facet normal 0 0 -1
    outer loop
      vertex 4.29247 -17.1365 0
      vertex 4.29247 17.1365 0
      vertex 5.12815 16.9053 0
    endloop
  endfacet
  facet normal 0 0 -1
    outer loop
      vertex 3.44646 -17.3265 0
      vertex 4.29247 17.1365 0
      vertex 4.29247 -17.1365 0
    endloop
  endfacet
  facet normal 0 0 -1
    outer loop
      vertex 3.44646 -17.3265 0
      vertex 3.44646 17.3265 0
      vertex 4.29247 17.1365 0
    endloop
  endfacet
  facet normal 0 0 -1
    outer loop
      vertex 2.59213 -17.4747 0
      vertex 3.44646 17.3265 0
      vertex 3.44646 -17.3265 0
    endloop
  endfacet
  facet normal 0 0 -1
    outer loop
      vertex 2.59213 -17.4747 0
      vertex 2.59213 17.4747 0
      vertex 3.44646 17.3265 0
    endloop
  endfacet
  facet normal 0 0 -1
    outer loop
      vertex 1.73157 -17.5809 0
      vertex 2.59213 17.4747 0
      vertex 2.59213 -17.4747 0
    endloop
  endfacet
  facet normal 0 0 -1
    outer loop
      vertex 1.73157 -17.5809 0
      vertex 1.73157 17.5809 0
      vertex 2.59213 17.4747 0
    endloop
  endfacet
  facet normal 0 0 -1
    outer loop
      vertex 0.866827 -17.6447 0
      vertex 1.73157 17.5809 0
      vertex 1.73157 -17.5809 0
    endloop
  endfacet
  facet normal 0 0 -1
    outer loop
      vertex 0.866827 -17.6447 0
      vertex 0.866827 17.6447 0
      vertex 1.73157 17.5809 0
    endloop
  endfacet
  facet normal 0 0 -1
    outer loop
      vertex 0.866827 -17.6447 0
      vertex 1.08173e-15 17.6659 0
      vertex 0.866827 17.6447 0
    endloop
  endfacet
  facet normal 0 0 -1
    outer loop
      vertex -3.24518e-15 -17.6659 0
      vertex 1.08173e-15 17.6659 0
      vertex 0.866827 -17.6447 0
    endloop
  endfacet
  facet normal 0 0 -1
    outer loop
      vertex -0.866827 -17.6447 0
      vertex 1.08173e-15 17.6659 0
      vertex -3.24518e-15 -17.6659 0
    endloop
  endfacet
  facet normal 0 0 -1
    outer loop
      vertex -0.866827 -17.6447 0
      vertex -0.866827 17.6447 0
      vertex 1.08173e-15 17.6659 0
    endloop
  endfacet
  facet normal 0 0 -1
    outer loop
      vertex -1.73157 -17.5809 0
      vertex -0.866827 17.6447 0
      vertex -0.866827 -17.6447 0
    endloop
  endfacet
  facet normal 0 0 -1
    outer loop
      vertex -1.73157 -17.5809 0
      vertex -1.73157 17.5809 0
      vertex -0.866827 17.6447 0
    endloop
  endfacet
  facet normal 0 0 -1
    outer loop
      vertex -2.59213 -17.4747 0
      vertex -1.73157 17.5809 0
      vertex -1.73157 -17.5809 0
    endloop
  endfacet
  facet normal 0 0 -1
    outer loop
      vertex -2.59213 -17.4747 0
      vertex -2.59213 17.4747 0
      vertex -1.73157 17.5809 0
    endloop
  endfacet
  facet normal 0 0 -1
    outer loop
      vertex -3.44646 -17.3265 0
      vertex -2.59213 17.4747 0
      vertex -2.59213 -17.4747 0
    endloop
  endfacet
  facet normal 0 0 -1
    outer loop
      vertex -3.44646 -17.3265 0
      vertex -3.44646 17.3265 0
      vertex -2.59213 17.4747 0
    endloop
  endfacet
  facet normal 0 0 -1
    outer loop
      vertex -4.29247 -17.1365 0
      vertex -3.44646 17.3265 0
      vertex -3.44646 -17.3265 0
    endloop
  endfacet
  facet normal 0 0 -1
    outer loop
      vertex -4.29247 -17.1365 0
      vertex -4.29247 17.1365 0
      vertex -3.44646 17.3265 0
    endloop
  endfacet
  facet normal 0 0 -1
    outer loop
      vertex -5.12815 -16.9053 0
      vertex -4.29247 17.1365 0
      vertex -4.29247 -17.1365 0
    endloop
  endfacet
  facet normal 0 0 -1
    outer loop
      vertex -5.12815 -16.9053 0
      vertex -5.12815 16.9053 0
      vertex -4.29247 17.1365 0
    endloop
  endfacet
  facet normal 0 0 -1
    outer loop
      vertex -5.95148 -16.6333 0
      vertex -5.12815 16.9053 0
      vertex -5.12815 -16.9053 0
    endloop
  endfacet
  facet normal 0 0 -1
    outer loop
      vertex -5.95148 -16.6333 0
      vertex -5.95148 16.6333 0
      vertex -5.12815 16.9053 0
    endloop
  endfacet
  facet normal 0 0 -1
    outer loop
      vertex -6.76047 -16.3212 0
      vertex -5.95148 16.6333 0
      vertex -5.95148 -16.6333 0
    endloop
  endfacet
  facet normal 0 0 -1
    outer loop
      vertex -6.76047 -16.3212 0
      vertex -6.76047 16.3212 0
      vertex -5.95148 16.6333 0
    endloop
  endfacet
  facet normal 0 0 -1
    outer loop
      vertex -7.55317 -15.9698 0
      vertex -6.76047 16.3212 0
      vertex -6.76047 -16.3212 0
    endloop
  endfacet
  facet normal 0 0 -1
    outer loop
      vertex -7.55317 -15.9698 0
      vertex -7.55317 15.9698 0
      vertex -6.76047 16.3212 0
    endloop
  endfacet
  facet normal 0 0 -1
    outer loop
      vertex -8.32767 -15.58 0
      vertex -7.55317 15.9698 0
      vertex -7.55317 -15.9698 0
    endloop
  endfacet
  facet normal 0 0 -1
    outer loop
      vertex -8.32767 -15.58 0
      vertex -8.32767 15.58 0
      vertex -7.55317 15.9698 0
    endloop
  endfacet
  facet normal 0 0 -1
    outer loop
      vertex -9.08211 -15.1526 0
      vertex -8.32767 15.58 0
      vertex -8.32767 -15.58 0
    endloop
  endfacet
  facet normal 0 0 -1
    outer loop
      vertex -9.08211 -15.1526 0
      vertex -9.08211 15.1526 0
      vertex -8.32767 15.58 0
    endloop
  endfacet
  facet normal 0 0 -1
    outer loop
      vertex -9.81467 -14.6887 0
      vertex -9.08211 15.1526 0
      vertex -9.08211 -15.1526 0
    endloop
  endfacet
  facet normal 0 0 -1
    outer loop
      vertex -9.81467 -14.6887 0
      vertex -9.81467 14.6887 0
      vertex -9.08211 15.1526 0
    endloop
  endfacet
  facet normal 0 0 -1
    outer loop
      vertex -10.5236 -14.1894 0
      vertex -9.81467 14.6887 0
      vertex -9.81467 -14.6887 0
    endloop
  endfacet
  facet normal 0 0 -1
    outer loop
      vertex -10.5236 -14.1894 0
      vertex -10.5236 14.1894 0
      vertex -9.81467 14.6887 0
    endloop
  endfacet
  facet normal 0 0 -1
    outer loop
      vertex -11.2072 -13.656 0
      vertex -10.5236 14.1894 0
      vertex -10.5236 -14.1894 0
    endloop
  endfacet
  facet normal 0 0 -1
    outer loop
      vertex -11.2072 -13.656 0
      vertex -11.2072 13.656 0
      vertex -10.5236 14.1894 0
    endloop
  endfacet
  facet normal 0 0 -1
    outer loop
      vertex -11.8637 -13.0896 0
      vertex -11.2072 13.656 0
      vertex -11.2072 -13.656 0
    endloop
  endfacet
  facet normal 0 0 -1
    outer loop
      vertex -11.8637 -13.0896 0
      vertex -11.8637 13.0896 0
      vertex -11.2072 13.656 0
    endloop
  endfacet
  facet normal 0 0 -1
    outer loop
      vertex -12.4917 -12.4917 0
      vertex -11.8637 13.0896 0
      vertex -11.8637 -13.0896 0
    endloop
  endfacet
  facet normal 0 0 -1
    outer loop
      vertex -12.4917 -12.4917 0
      vertex -12.4917 12.4917 0
      vertex -11.8637 13.0896 0
    endloop
  endfacet
  facet normal 0 0 -1
    outer loop
      vertex -13.0896 -11.8637 0
      vertex -12.4917 12.4917 0
      vertex -12.4917 -12.4917 0
    endloop
  endfacet
  facet normal 0 0 -1
    outer loop
      vertex -13.0896 -11.8637 0
      vertex -13.0896 11.8637 0
      vertex -12.4917 12.4917 0
    endloop
  endfacet
  facet normal 0 0 -1
    outer loop
      vertex -13.656 -11.2072 0
      vertex -13.0896 11.8637 0
      vertex -13.0896 -11.8637 0
    endloop
  endfacet
  facet normal 0 0 -1
    outer loop
      vertex -13.656 -11.2072 0
      vertex -13.656 11.2072 0
      vertex -13.0896 11.8637 0
    endloop
  endfacet
  facet normal 0 0 -1
    outer loop
      vertex -14.1894 -10.5236 0
      vertex -13.656 11.2072 0
      vertex -13.656 -11.2072 0
    endloop
  endfacet
  facet normal 0 0 -1
    outer loop
      vertex -14.1894 -10.5236 0
      vertex -14.1894 10.5236 0
      vertex -13.656 11.2072 0
    endloop
  endfacet
  facet normal 0 0 -1
    outer loop
      vertex -14.6887 -9.81467 0
      vertex -14.1894 10.5236 0
      vertex -14.1894 -10.5236 0
    endloop
  endfacet
  facet normal 0 0 -1
    outer loop
      vertex -14.6887 -9.81467 0
      vertex -14.6887 9.81467 0
      vertex -14.1894 10.5236 0
    endloop
  endfacet
  facet normal 0 0 -1
    outer loop
      vertex -15.1526 -9.08211 0
      vertex -14.6887 9.81467 0
      vertex -14.6887 -9.81467 0
    endloop
  endfacet
  facet normal 0 0 -1
    outer loop
      vertex -15.1526 -9.08211 0
      vertex -15.1526 9.08211 0
      vertex -14.6887 9.81467 0
    endloop
  endfacet
  facet normal 0 0 -1
    outer loop
      vertex -15.58 -8.32767 0
      vertex -15.1526 9.08211 0
      vertex -15.1526 -9.08211 0
    endloop
  endfacet
  facet normal 0 0 -1
    outer loop
      vertex -15.58 -8.32767 0
      vertex -15.58 8.32767 0
      vertex -15.1526 9.08211 0
    endloop
  endfacet
  facet normal 0 0 -1
    outer loop
      vertex -15.9698 -7.55317 0
      vertex -15.58 8.32767 0
      vertex -15.58 -8.32767 0
    endloop
  endfacet
  facet normal 0 0 -1
    outer loop
      vertex -15.9698 -7.55317 0
      vertex -15.9698 7.55317 0
      vertex -15.58 8.32767 0
    endloop
  endfacet
  facet normal 0 0 -1
    outer loop
      vertex -16.3212 -6.76047 0
      vertex -15.9698 7.55317 0
      vertex -15.9698 -7.55317 0
    endloop
  endfacet
  facet normal 0 0 -1
    outer loop
      vertex -16.3212 -6.76047 0
      vertex -16.3212 6.76047 0
      vertex -15.9698 7.55317 0
    endloop
  endfacet
  facet normal 0 0 -1
    outer loop
      vertex -16.6333 -5.95148 0
      vertex -16.3212 6.76047 0
      vertex -16.3212 -6.76047 0
    endloop
  endfacet
  facet normal 0 0 -1
    outer loop
      vertex -16.6333 -5.95148 0
      vertex -16.6333 5.95148 0
      vertex -16.3212 6.76047 0
    endloop
  endfacet
  facet normal 0 0 -1
    outer loop
      vertex -16.9053 -5.12815 0
      vertex -16.6333 5.95148 0
      vertex -16.6333 -5.95148 0
    endloop
  endfacet
  facet normal 0 0 -1
    outer loop
      vertex -16.9053 -5.12815 0
      vertex -16.9053 5.12815 0
      vertex -16.6333 5.95148 0
    endloop
  endfacet
  facet normal 0 0 -1
    outer loop
      vertex -17.1365 -4.29247 0
      vertex -16.9053 5.12815 0
      vertex -16.9053 -5.12815 0
    endloop
  endfacet
  facet normal 0 0 -1
    outer loop
      vertex -17.1365 -4.29247 0
      vertex -17.1365 4.29247 0
      vertex -16.9053 5.12815 0
    endloop
  endfacet
  facet normal 0 0 -1
    outer loop
      vertex -17.3265 -3.44646 0
      vertex -17.1365 4.29247 0
      vertex -17.1365 -4.29247 0
    endloop
  endfacet
  facet normal 0 0 -1
    outer loop
      vertex -17.3265 -3.44646 0
      vertex -17.3265 3.44646 0
      vertex -17.1365 4.29247 0
    endloop
  endfacet
  facet normal 0 0 -1
    outer loop
      vertex -17.4747 -2.59213 0
      vertex -17.3265 3.44646 0
      vertex -17.3265 -3.44646 0
    endloop
  endfacet
  facet normal 0 0 -1
    outer loop
      vertex -17.4747 -2.59213 0
      vertex -17.4747 2.59213 0
      vertex -17.3265 3.44646 0
    endloop
  endfacet
  facet normal 0 0 -1
    outer loop
      vertex -17.5809 -1.73157 0
      vertex -17.4747 2.59213 0
      vertex -17.4747 -2.59213 0
    endloop
  endfacet
  facet normal 0 0 -1
    outer loop
      vertex -17.5809 -1.73157 0
      vertex -17.5809 1.73157 0
      vertex -17.4747 2.59213 0
    endloop
  endfacet
  facet normal 0 0 -1
    outer loop
      vertex -17.6447 -0.866827 0
      vertex -17.5809 1.73157 0
      vertex -17.5809 -1.73157 0
    endloop
  endfacet
  facet normal 0 0 -1
    outer loop
      vertex -17.6447 -0.866827 0
      vertex -17.6447 0.866827 0
      vertex -17.5809 1.73157 0
    endloop
  endfacet
  facet normal 0 -0 -1
    outer loop
      vertex -17.6447 0.866827 0
      vertex -17.6447 -0.866827 0
      vertex -17.6659 2.16345e-15 0
    endloop
  endfacet
endsolid OpenSCAD_Model
